<svg id="vector" xmlns="http://www.w3.org/2000/svg" width="21" height="21" viewBox="0 0 21 21"><path fill="#2c1f50" d="M4.765,12.756C3.974,11.358 3.565,9.776 3.578,8.169C3.651,3.785 7.23,0.205 11.775,0.004C13.87,-0.063 15.914,0.657 17.505,2.021C19.097,3.385 20.12,5.295 20.374,7.376C20.723,10.66 19.573,13.327 16.911,15.238C14.215,17.174 11.276,17.349 8.277,15.939C7.769,15.7 7.506,15.796 7.153,16.153C6.011,17.308 4.838,18.431 3.679,19.57C2.654,20.577 1.489,20.675 0.614,19.822C-0.278,18.953 -0.191,17.812 0.832,16.773C2.133,15.452 3.427,14.124 4.765,12.756ZM7.623,3.361C5.653,5.052 4.949,7.228 5.394,9.716C6.078,13.539 9.99,15.928 13.754,14.924C17.534,13.916 19.727,9.927 18.417,6.257C16.682,1.398 12.336,1.37 9.637,3.738C7.53,5.587 7.783,9.156 10.094,10.554C10.62,10.891 11.232,11.068 11.857,11.062C12.481,11.056 13.091,10.867 13.609,10.519C14.054,10.274 14.413,9.9 14.639,9.445C14.865,8.991 14.947,8.478 14.874,7.976C14.837,7.55 14.675,7.145 14.409,6.811C14.143,6.476 13.784,6.228 13.377,6.097C13.045,5.984 12.684,5.979 12.348,6.082C12.012,6.186 11.717,6.392 11.505,6.673C11.311,6.886 11.201,7.164 11.199,7.453C11.196,7.741 11.3,8.021 11.49,8.238C11.845,8.713 12.324,8.684 12.798,8.399C13.286,8.105 13.76,8.075 14.067,8.606C14.366,9.124 14.119,9.544 13.652,9.848C13.252,10.14 12.773,10.303 12.278,10.315C11.784,10.327 11.297,10.189 10.883,9.918C10.422,9.649 10.05,9.25 9.814,8.771C9.579,8.292 9.491,7.754 9.56,7.225C9.674,5.847 10.486,4.951 11.777,4.537C12.413,4.303 13.105,4.268 13.762,4.435C14.418,4.602 15.009,4.964 15.455,5.474C17.496,7.625 16.654,11.114 13.823,12.306C10.8,13.578 7.471,11.766 6.685,8.426C6.481,7.563 6.46,6.667 6.621,5.795C6.783,4.923 7.124,4.094 7.623,3.361ZM6.058,14.264L5.654,14.047C4.404,15.375 3.146,16.698 1.914,18.044C1.802,18.165 1.856,18.438 1.832,18.64C2.008,18.6 2.239,18.616 2.35,18.509C3.573,17.33 4.787,16.142 5.973,14.927C6.098,14.8 6.034,14.49 6.058,14.264Z" id="path_0"/></svg>