<svg id="vector" xmlns="http://www.w3.org/2000/svg" width="32" height="32" viewBox="0 0 32 32"><path fill="#fff" fill-opacity="0.0" d="M16,0L16,0A16,16 0,0 1,32 16L32,16A16,16 0,0 1,16 32L16,32A16,16 0,0 1,0 16L0,16A16,16 0,0 1,16 0z" id="path_0"/><path fill="#00000000" d="M16,0.5L16,0.5A15.5,15.5 0,0 1,31.5 16L31.5,16A15.5,15.5 0,0 1,16 31.5L16,31.5A15.5,15.5 0,0 1,0.5 16L0.5,16A15.5,15.5 0,0 1,16 0.5z" stroke="#ffffff" stroke-width="1" id="path_1"/><path fill="#00000000" d="M15.278,16.772C13.135,16.772 11.235,17.257 9.986,17.678C9.064,17.99 8.449,18.858 8.449,19.832V22.843H15.278" stroke="#2c1f50" stroke-width="1.4" id="path_2"/><path fill="#00000000" d="M15.278,16.772C13.183,16.772 11.484,14.314 11.484,12.22V11.461C11.484,9.366 13.183,7.667 15.278,7.667C17.373,7.667 19.072,9.366 19.072,11.461V12.22C19.072,14.314 17.373,16.772 15.278,16.772Z" stroke="#2c1f50" stroke-width="1.4" stroke-linecap="square" id="path_3"/><path fill="#00000000" d="M17.65,19.808C17.987,18.499 19.176,17.531 20.59,17.531C21.713,17.531 22.693,18.141 23.218,19.048" stroke="#2c1f50" stroke-width="1.4" stroke-linecap="square" id="path_4"/><path fill="#2c1f50" d="M24.383,17.531L24.106,20.566L21.348,19.911L24.383,17.531Z" id="path_5"/><path fill="#00000000" d="M23.529,22.084C23.192,23.393 22.004,24.36 20.589,24.36C19.466,24.36 18.486,23.75 17.961,22.844" stroke="#2c1f50" stroke-width="1.4" stroke-linecap="square" id="path_6"/><path fill="#2c1f50" d="M16.629,24.627L16.954,21.325L20.194,22.038L16.629,24.627Z" id="path_7"/></svg>