<svg id="vector" xmlns="http://www.w3.org/2000/svg" width="32" height="32" viewBox="0 0 32 32"><path fill="#7b35bb" d="M6,4.2097V3.6573C6,2.742 6.7326,2 7.6364,2H28.3636C29.2674,2 30,2.742 30,3.6573V18.8951C30,19.5053 29.5116,20 28.9091,20H27.8184V5.867C27.8184,4.9517 27.0858,4.2097 26.1821,4.2097H6Z" id="path_0"/><path fill="#7b35bb" d="M2,8.2006C2,6.9852 2.9654,6 4.1563,6H23.8438C25.0346,6 26,6.9852 26,8.2006V22.0866C26,23.3019 25.0346,24.2871 23.8438,24.2871H15.4448C15.4034,24.2871 15.3631,24.3011 15.3302,24.327L8.4636,29.7384C7.6625,30.3697 6.5,29.7869 6.5,28.7539V24.4785C6.5,24.3728 6.416,24.2871 6.3125,24.2871H3.6875C2.7555,24.2871 2,23.5161 2,22.5649V8.2006ZM15.0024,11.2565V14.0114C16.4503,14.4027 17.9999,14.9662 17.9999,16.8132C17.9999,18.1907 17.139,19.4899 15.0024,19.6307V20.5073C15.0024,20.771 14.7887,20.9847 14.525,20.9847C14.2573,20.998 14.0296,20.7914 14.0171,20.5237C14.0171,20.521 14.0169,20.5182 14.0167,20.5155C14.0165,20.5127 14.0163,20.51 14.0163,20.5073V19.6464C12.9292,19.6112 11.8899,19.1924 11.0814,18.4646C10.9703,18.3519 10.9085,18.2001 10.9092,18.042C10.9046,17.6804 11.1824,17.3783 11.5432,17.3533C11.6856,17.3564 11.8234,17.4057 11.9345,17.4941C12.5246,17.9903 13.2446,18.3073 14.0085,18.4098V15.2793C12.5606,14.888 11.0501,14.3949 11.0501,12.6183C11.0501,11.1704 12.2476,10.0826 14.0085,9.9574V9.0652C14.0124,8.7967 14.2331,8.583 14.5008,8.587C14.5062,8.587 14.5117,8.587 14.5172,8.5877C14.781,8.5877 14.9946,8.8014 14.9946,9.0652V9.9887C15.897,10.0403 16.7579,10.387 17.4443,10.9748C17.5554,11.0875 17.6172,11.2393 17.6164,11.3974C17.6125,11.766 17.312,12.0626 16.9434,12.0626C16.8283,12.0611 16.7172,12.0258 16.6225,11.9609C16.1474,11.5978 15.5918,11.3559 15.0024,11.2565ZM12.498,12.5244C12.498,13.2523 13.1633,13.5105 14.0163,13.761V11.2018C13.1007,11.2722 12.498,11.7965 12.498,12.5244ZM15.0024,15.5767V18.4254C16.1607,18.2846 16.5677,17.5802 16.5677,16.9854C16.5755,16.1636 15.8868,15.8271 15.0024,15.5767Z" fill-rule="evenodd" id="path_1"/></svg>