<svg id="vector" xmlns="http://www.w3.org/2000/svg" width="25" height="24" viewBox="0 0 25 24"><path fill="#2c1f50" d="M7.0711,3.25H17.9288L22.5,9.6496V9.9167C22.5,10.7542 22.2512,11.7806 21.592,12.617C20.9076,13.4851 19.8296,14.0833 18.3333,14.0833C16.837,14.0833 15.759,13.4851 15.0747,12.617C14.4154,11.7806 14.1667,10.7542 14.1667,9.9167V9.7456L16.2362,4.9167H8.7638L10.8333,9.7456V9.9167C10.8333,10.7542 10.5846,11.7806 9.9253,12.617C9.241,13.4851 8.163,14.0833 6.6667,14.0833C5.1704,14.0833 4.0924,13.4851 3.4081,12.617C2.7487,11.7806 2.5,10.7542 2.5,9.9167V9.6496L7.0711,3.25ZM7.3174,5.7727L9.1619,10.0766C9.1322,10.5823 8.9618,11.1471 8.6164,11.5853C8.259,12.0386 7.6704,12.4167 6.6667,12.4167C5.663,12.4167 5.0743,12.0386 4.7169,11.5853C4.3921,11.1731 4.222,10.6491 4.1782,10.1675L7.3174,5.7727ZM17.6826,5.7727L20.8218,10.1675C20.778,10.6491 20.6079,11.1731 20.283,11.5853C19.9257,12.0386 19.337,12.4167 18.3333,12.4167C17.3296,12.4167 16.741,12.0386 16.3836,11.5853C16.0382,11.1471 15.8678,10.5823 15.8381,10.0766L17.6826,5.7727Z" fill-rule="evenodd" id="path_0"/><path fill="#2c1f50" d="M13.3334,3.25V20.75H11.6667V3.25H13.3334Z" fill-rule="evenodd" id="path_1"/><path fill="#2c1f50" d="M5.8333,19.0833H19.1666V20.7499H5.8333V19.0833Z" fill-rule="evenodd" id="path_2"/><path fill="#2c1f50" d="M10,10.7499H3.3333V9.0833H10V10.7499Z" fill-rule="evenodd" id="path_3"/><path fill="#2c1f50" d="M21.6667,10.7499H15V9.0833H21.6667V10.7499Z" fill-rule="evenodd" id="path_4"/></svg>