<svg id="vector" xmlns="http://www.w3.org/2000/svg" width="20" height="20" viewBox="0 0 20 20"><path fill="#ff9800" d="M10,16.667c3.762,0 6.688,-3.23 7.941,-5.105a2.027,2.027 0,0 0,0 -2.395c-1.253,-1.771 -4.18,-5 -7.941,-5 -3.762,0 -6.688,3.229 -7.941,5.104 -0.523,0.729 -0.523,1.666 0,2.291 1.253,1.876 4.18,5.105 7.941,5.105zM10,7.292c1.776,0 3.135,1.354 3.135,3.125 0,1.77 -1.359,3.125 -3.135,3.125 -1.776,0 -3.135,-1.354 -3.135,-3.125S8.224,7.292 10,7.292z" fill-rule="evenodd" id="path_0"/></svg>