<svg id="vector" xmlns="http://www.w3.org/2000/svg" width="20" height="20" viewBox="0 0 20 20"><path fill="#ff9800" d="M16.563,1.98a1.007,1.007 0,0 1,1.458 0,1.007 1.007,0 0,1 0,1.458L3.437,18.02c-0.208,0.208 -0.416,0.312 -0.729,0.312 -0.312,0 -0.52,-0.104 -0.729,-0.312a1.007,1.007 0,0 1,0 -1.459l2.604,-2.604c-1.041,-0.937 -1.979,-1.979 -2.5,-2.812 -0.52,-0.625 -0.52,-1.563 0,-2.292C3.333,6.98 6.25,3.75 10,3.75c1.354,0 2.604,0.417 3.75,1.042zM16.875,7.5c0.417,0.52 0.833,0.938 1.042,1.25 0.52,0.73 0.52,1.667 0,2.396C16.667,13.02 13.75,16.25 10,16.25c-0.52,0 -1.146,-0.104 -1.667,-0.208zM10,6.875c-1.77,0 -3.125,1.354 -3.125,3.125 0,0.52 0.104,0.938 0.313,1.354l4.166,-4.166A2.883,2.883 0,0 0,10 6.875z" fill-rule="evenodd" id="path_0"/></svg>