<svg id="vector" xmlns="http://www.w3.org/2000/svg" width="24" height="23" viewBox="0 0 24 23"><defs><clipPath id="clip_path_0"><path d="M0.75,0h23v23h-23z"/></clipPath></defs><g id="g_0"><path fill="#2c1f50" d="M14.0455,0.5742H11.2045V6.5338H14.0455V0.5742Z" stroke-opacity="0.3" fill-opacity="0.3" clip-path="url(#clip_path_0)"/><path fill="#2c1f50" d="M14.0455,16.6537H11.2045V22.6133H14.0455V16.6537Z" stroke-opacity="0.3" fill-opacity="0.3"/><path fill="#2c1f50" d="M23.6446,10.1732H17.685V13.0142H23.6446V10.1732Z" stroke-opacity="0.3" fill-opacity="0.3"/><path fill="#2c1f50" d="M7.5651,10.1732H1.6055V13.0142H7.5651V10.1732Z" stroke-opacity="0.3" fill-opacity="0.3"/><path fill="#2c1f50" d="M7.7514,14.3055H2.4765C2.9455,16.0722 3.8729,17.692 5.1998,19.0189C6.5267,20.3458 8.1464,21.2732 9.913,21.7422V16.4673C9.0078,15.9615 8.2572,15.2109 7.7514,14.3055Z"/><path fill="#2c1f50" d="M17.4984,14.3055C16.9942,15.2081 16.2465,15.9568 15.345,16.4626V21.74C17.1084,21.2703 18.7251,20.3438 20.05,19.0189C21.377,17.692 22.3043,16.0722 22.7733,14.3055H17.4984Z"/><path fill="#2c1f50" d="M5.1998,4.1686C3.8729,5.4955 2.9455,7.1153 2.4765,8.882H7.7514C8.2572,7.9766 9.0078,7.226 9.913,6.7202V1.4453C8.1464,1.9143 6.5267,2.8417 5.1998,4.1686Z"/><path fill="#2c1f50" d="M22.015,6.8888C21.3125,5.4894 20.2846,4.242 19.0423,3.2816C17.9258,2.4185 16.6758,1.8011 15.345,1.4464V6.7224C15.5832,6.8561 15.8135,7.0073 16.0336,7.1775C16.6456,7.6505 17.1413,8.2309 17.504,8.882H22.7738C22.5912,8.198 22.338,7.5323 22.015,6.8888Z"/></g></svg>