<svg id="vector" xmlns="http://www.w3.org/2000/svg" width="25" height="24" viewBox="0 0 25 24"><path fill="#2c1f50" d="M6.8337,21.3C6.4471,21.3 6.1337,21.6134 6.1337,22C6.1337,22.3866 6.4471,22.7 6.8337,22.7V21.3ZM18.8337,22.7C19.2203,22.7 19.5337,22.3866 19.5337,22C19.5337,21.6134 19.2203,21.3 18.8337,21.3V22.7ZM19.6337,9.5C19.6337,11.2236 18.535,13.4419 17.027,15.2786C16.2849,16.1826 15.4741,16.9556 14.709,17.4962C13.9222,18.0523 13.2719,18.3 12.8337,18.3V19.7C13.7079,19.7 14.6515,19.2512 15.5169,18.6396C16.4042,18.0126 17.3044,17.147 18.1091,16.1669C19.6949,14.2354 21.0337,11.7037 21.0337,9.5H19.6337ZM12.8337,18.3C12.4096,18.3 11.7656,18.0412 10.9747,17.4474C10.2084,16.8721 9.3956,16.0512 8.6511,15.0975C7.1386,13.1603 6.0337,10.8416 6.0337,9.1111H4.6337C4.6337,11.3079 5.9663,13.9337 7.5476,15.9591C8.3498,16.9867 9.248,17.9017 10.1341,18.5669C10.9955,19.2136 11.9453,19.7 12.8337,19.7V18.3ZM6.0337,9.1111C6.0337,5.4486 9.2893,2.7 12.8337,2.7V1.3C8.6461,1.3 4.6337,4.5514 4.6337,9.1111H6.0337ZM12.8337,2.7C16.3523,2.7 19.6337,5.4247 19.6337,9.5H21.0337C21.0337,4.5753 17.047,1.3 12.8337,1.3V2.7ZM15.1337,9C15.1337,10.2703 14.1039,11.3 12.8337,11.3V12.7C14.8771,12.7 16.5337,11.0435 16.5337,9H15.1337ZM12.8337,11.3C11.5634,11.3 10.5337,10.2703 10.5337,9H9.1337C9.1337,11.0435 10.7902,12.7 12.8337,12.7V11.3ZM10.5337,9C10.5337,7.7297 11.5634,6.7 12.8337,6.7V5.3C10.7902,5.3 9.1337,6.9566 9.1337,9H10.5337ZM12.8337,6.7C14.1039,6.7 15.1337,7.7297 15.1337,9H16.5337C16.5337,6.9566 14.8771,5.3 12.8337,5.3V6.7ZM6.8337,22.7H18.8337V21.3H6.8337V22.7Z" id="path_0"/></svg>