<svg id="vector" xmlns="http://www.w3.org/2000/svg" width="32" height="32" viewBox="0 0 32 32"><path fill="#7b35bb" d="M16.2222,29.8845C18.2344,29.8845 19.9177,28.45 20.3044,26.5511H12.14C12.5266,28.45 14.21,29.8845 16.2222,29.8845Z" id="path_0"/><path fill="#7b35bb" d="M23.9998,15.7644C23.9998,17.9633 24.9631,20.0388 26.6431,21.4588C27.0853,21.8377 27.3331,22.3755 27.3331,22.9444C27.3331,24.0166 26.4609,24.8888 25.3887,24.8888H7.0553C5.9831,24.8888 5.1109,24.0166 5.1109,22.9444C5.1109,22.3755 5.3587,21.8377 5.7909,21.4677C7.4809,20.0388 8.4442,17.9633 8.4442,15.7644V12.6666C8.4442,8.7566 11.3476,5.5199 15.1109,4.9777V3.7777C15.1109,3.1633 15.6087,2.6666 16.222,2.6666C16.8353,2.6666 17.3331,3.1633 17.3331,3.7777V4.9777C21.0953,5.5199 23.9998,8.7566 23.9998,12.6666V15.7644ZM16.7706,11.9495V14.7044C18.2185,15.0957 19.768,15.6592 19.768,17.5062C19.768,18.8837 18.9071,20.1828 16.7705,20.3237V21.2002C16.7705,21.464 16.5569,21.6777 16.2931,21.6777C16.0255,21.6909 15.7977,21.4843 15.7852,21.2167C15.7852,21.2139 15.785,21.2112 15.7848,21.2085C15.7846,21.2057 15.7844,21.203 15.7844,21.2002V20.3393C14.6973,20.3041 13.658,19.8854 12.8495,19.1576C12.7384,19.0449 12.6766,18.893 12.6774,18.735C12.6727,18.3734 12.9505,18.0713 13.3113,18.0462C13.4537,18.0494 13.5915,18.0987 13.7026,18.1871C14.2927,18.6833 15.0128,19.0002 15.7766,19.1028V15.9722C14.3288,15.5809 12.8183,15.0878 12.8183,13.3113C12.8183,11.8634 14.0157,10.7756 15.7766,10.6503V9.7581C15.7805,9.4897 16.0012,9.276 16.2689,9.2799C16.2744,9.2799 16.2799,9.2799 16.2853,9.2807C16.5491,9.2807 16.7628,9.4944 16.7628,9.7581V10.6816C17.6651,10.7333 18.526,11.08 19.2124,11.6678C19.3235,11.7805 19.3853,11.9323 19.3846,12.0904C19.3807,12.459 19.0801,12.7556 18.7115,12.7556C18.5965,12.7541 18.4853,12.7188 18.3906,12.6539C17.9156,12.2907 17.3599,12.0489 16.7706,11.9495ZM14.2662,13.2174C14.2662,13.9452 14.9314,14.2035 15.7845,14.4539V11.8947C14.8688,11.9652 14.2662,12.4895 14.2662,13.2174ZM16.7706,16.2696V19.1184C17.9289,18.9776 18.3358,18.2732 18.3358,17.6784C18.3437,16.8566 17.655,16.5201 16.7706,16.2696Z" fill-rule="evenodd" id="path_1"/></svg>