<svg id="vector" xmlns="http://www.w3.org/2000/svg" width="24" height="24" viewBox="0 0 24 24"><path fill="#2c1f50" d="M14.5,19.5c0,1.375 -1.125,2.5 -2.5,2.5a2.507,2.507 0,0 1,-2.5 -2.5zM12,2c3.5,0 6.25,2.75 6.25,6.25V12c0,1.625 1,2.875 1.875,3.75h0.625c0.75,0 1.25,0.5 1.25,1.25s-0.5,1.25 -1.25,1.25H3.25C2.5,18.25 2,17.75 2,17s0.5,-1.25 1.25,-1.25h0.625C4.75,14.875 5.75,13.625 5.75,12V8.25C5.75,4.75 8.5,2 12,2z" fill-rule="evenodd" id="path_0"/><path fill="#ff3b30" d="M18,6m-4,0a4,4 0,1 1,8 0a4,4 0,1 1,-8 0" fill-rule="evenodd" id="path_1"/></svg>