<svg id="vector" xmlns="http://www.w3.org/2000/svg" width="20" height="20" viewBox="0 0 20 20"><path fill="#00000000" d="M3.333,11.5C3.333,9.6144 3.333,8.6716 3.9188,8.0858C4.5046,7.5 5.4474,7.5 7.333,7.5H12.6663C14.552,7.5 15.4948,7.5 16.0806,8.0858C16.6663,8.6716 16.6663,9.6144 16.6663,11.5V13.5C16.6663,15.3856 16.6663,16.3284 16.0806,16.9142C15.4948,17.5 14.552,17.5 12.6663,17.5H7.333C5.4474,17.5 4.5046,17.5 3.9188,16.9142C3.333,16.3284 3.333,15.3856 3.333,13.5V11.5Z" stroke="#ffffff" stroke-width="1.4" id="path_0"/><path fill="#00000000" d="M13.3327,6.6667V5.8333C13.3327,3.9924 11.8403,2.5 9.9993,2.5V2.5C8.1584,2.5 6.666,3.9924 6.666,5.8333V6.6667" stroke="#ffffff" stroke-width="1.4" stroke-linecap="round" id="path_1"/><path fill="#ffffff" d="M8.333,12.5a1.6667,1.6667 0,1 0,3.3333 0a1.6667,1.6667 0,1 0,-3.3333 0z" id="path_2"/></svg>