<svg id="vector" xmlns="http://www.w3.org/2000/svg" width="54" height="54" viewBox="0 0 54 54"><path fill="#000000" d="M31.5582,49.8032H34.5997V46.7618H31.5582V49.8032Z" fill-opacity="0.1" id="path_0"/><path fill="#000000" d="M28.5207,46.7617H31.5622V43.7202H28.5207V46.7617Z" fill-opacity="0.1" id="path_1"/><path fill="#000000" d="M25.4793,49.8032H28.5207V46.7618H25.4793V49.8032Z" fill-opacity="0.1" id="path_2"/><path fill="#000000" d="M19.4003,49.8032H22.4418V46.7618H19.4003V49.8032Z" fill-opacity="0.1" id="path_3"/><path fill="#000000" d="M31.5582,46.7617H34.5997V43.7202H31.5582V46.7617Z" fill-opacity="0.1" id="path_4"/><path fill="#000000" d="M42.1994,45.2407H45.2409V42.1993H42.1994V45.2407Z" fill-opacity="0.1" id="path_5"/><path fill="#000000" d="M22.4378,46.7617H25.4793V43.7202H22.4378V46.7617Z" fill-opacity="0.1" id="path_6"/><path fill="#000000" d="M19.4003,46.7617H22.4418V43.7202H19.4003V46.7617Z" fill-opacity="0.1" id="path_7"/><path fill="#000000" d="M31.5582,43.7202H34.5997V40.6787H31.5582V43.7202Z" fill-opacity="0.1" id="path_8"/><path fill="#000000" d="M28.5207,43.7202H31.5622V40.6787H28.5207V43.7202Z" fill-opacity="0.1" id="path_9"/><path fill="#000000" d="M25.4793,43.7202H28.5207V40.6787H25.4793V43.7202Z" fill-opacity="0.1" id="path_10"/><path fill="#000000" d="M19.4003,43.7202H22.4418V40.6787H19.4003V43.7202Z" fill-opacity="0.1" id="path_11"/><path fill="#000000" d="M40.6826,49.803H49.815V37.6411H37.6412V49.803H40.6826ZM40.6826,43.7201V40.6826H46.7616V46.7616H40.6826V43.7201Z" fill-opacity="0.1" id="path_12"/><path fill="#000000" d="M25.4793,40.6826H28.5207V37.6411H25.4793V40.6826Z" fill-opacity="0.1" id="path_13"/><path fill="#000000" d="M22.4378,40.6826H25.4793V37.6411H22.4378V40.6826Z" fill-opacity="0.1" id="path_14"/><path fill="#000000" d="M7.2384,49.803H16.3707V37.6411H4.1969V49.803H7.2384ZM7.2384,43.7201V40.6826H13.3213V46.7616H7.2384V43.7201Z" fill-opacity="0.1" id="path_15"/><path fill="#000000" d="M11.8006,42.2036H8.7591V45.2451H11.8006V42.2036Z" fill-opacity="0.1" id="path_16"/><path fill="#000000" d="M31.5582,37.6411H34.5997V34.5996H31.5582V37.6411Z" fill-opacity="0.1" id="path_17"/><path fill="#000000" d="M19.4003,37.6411H22.4418V34.5996H19.4003V37.6411Z" fill-opacity="0.1" id="path_18"/><path fill="#000000" d="M46.7616,34.5996H49.8031V31.5581H46.7616V34.5996Z" fill-opacity="0.1" id="path_19"/><path fill="#000000" d="M43.7201,34.5996H46.7616V31.5581H43.7201V34.5996Z" fill-opacity="0.1" id="path_20"/><path fill="#000000" d="M40.6787,34.5996H43.7202V31.5581H40.6787V34.5996Z" fill-opacity="0.1" id="path_21"/><path fill="#000000" d="M34.5997,34.5996H37.6412V31.5581H34.5997V34.5996Z" fill-opacity="0.1" id="path_22"/><path fill="#000000" d="M25.4793,34.5996H28.5207V31.5581H25.4793V34.5996Z" fill-opacity="0.1" id="path_23"/><path fill="#000000" d="M22.4378,34.5996H25.4793V31.5581H22.4378V34.5996Z" fill-opacity="0.1" id="path_24"/><path fill="#000000" d="M16.3588,34.5996H19.4003V31.5581H16.3588V34.5996Z" fill-opacity="0.1" id="path_25"/><path fill="#000000" d="M13.3174,34.5996H16.3588V31.5581H13.3174V34.5996Z" fill-opacity="0.1" id="path_26"/><path fill="#000000" d="M7.2384,34.5996H10.2799V31.5581H7.2384V34.5996Z" fill-opacity="0.1" id="path_27"/><path fill="#000000" d="M4.1969,34.5996H7.2384V31.5581H4.1969V34.5996Z" fill-opacity="0.1" id="path_28"/><path fill="#000000" d="M43.7201,31.562H46.7616V28.5205H43.7201V31.562Z" fill-opacity="0.1" id="path_29"/><path fill="#000000" d="M37.6412,31.562H40.6826V28.5205H37.6412V31.562Z" fill-opacity="0.1" id="path_30"/><path fill="#000000" d="M34.6037,31.562H37.6452V28.5205H34.6037V31.562Z" fill-opacity="0.1" id="path_31"/><path fill="#000000" d="M31.5582,31.562H34.5997V28.5205H31.5582V31.562Z" fill-opacity="0.1" id="path_32"/><path fill="#000000" d="M25.4793,31.562H28.5207V28.5205H25.4793V31.562Z" fill-opacity="0.1" id="path_33"/><path fill="#000000" d="M19.4003,31.562H22.4418V28.5205H19.4003V31.562Z" fill-opacity="0.1" id="path_34"/><path fill="#000000" d="M10.2759,31.5581H13.3174V28.5166H10.2759V31.5581Z" fill-opacity="0.1" id="path_35"/><path fill="#000000" d="M46.7616,28.5205H49.8031V25.479H46.7616V28.5205Z" fill-opacity="0.1" id="path_36"/><path fill="#000000" d="M43.7201,28.5205H46.7616V25.479H43.7201V28.5205Z" fill-opacity="0.1" id="path_37"/><path fill="#000000" d="M40.6787,28.5205H43.7202V25.479H40.6787V28.5205Z" fill-opacity="0.1" id="path_38"/><path fill="#000000" d="M31.5582,28.5205H34.5997V25.479H31.5582V28.5205Z" fill-opacity="0.1" id="path_39"/><path fill="#000000" d="M28.5207,28.5205H31.5622V25.479H28.5207V28.5205Z" fill-opacity="0.1" id="path_40"/><path fill="#000000" d="M22.4378,28.5205H25.4793V25.479H22.4378V28.5205Z" fill-opacity="0.1" id="path_41"/><path fill="#000000" d="M19.4003,28.5205H22.4418V25.479H19.4003V28.5205Z" fill-opacity="0.1" id="path_42"/><path fill="#000000" d="M16.3588,28.5205H19.4003V25.479H16.3588V28.5205Z" fill-opacity="0.1" id="path_43"/><path fill="#000000" d="M4.1969,28.5205H7.2384V25.479H4.1969V28.5205Z" fill-opacity="0.1" id="path_44"/><path fill="#000000" d="M46.7616,25.4834H49.8031V22.4419H46.7616V25.4834Z" fill-opacity="0.1" id="path_45"/><path fill="#000000" d="M40.6787,25.4834H43.7202V22.4419H40.6787V25.4834Z" fill-opacity="0.1" id="path_46"/><path fill="#000000" d="M37.6412,25.4834H40.6826V22.4419H37.6412V25.4834Z" fill-opacity="0.1" id="path_47"/><path fill="#000000" d="M25.4793,25.4834H28.5207V22.4419H25.4793V25.4834Z" fill-opacity="0.1" id="path_48"/><path fill="#000000" d="M28.5207,22.438H31.5622V19.3965H28.5207V22.438Z" fill-opacity="0.1" id="path_49"/><path fill="#000000" d="M22.4378,25.4834H25.4793V22.4419H22.4378V25.4834Z" fill-opacity="0.1" id="path_50"/><path fill="#000000" d="M16.3588,25.4834H19.4003V22.4419H16.3588V25.4834Z" fill-opacity="0.1" id="path_51"/><path fill="#000000" d="M13.3174,25.4834H16.3588V22.4419H13.3174V25.4834Z" fill-opacity="0.1" id="path_52"/><path fill="#000000" d="M10.2759,25.4834H13.3174V22.4419H10.2759V25.4834Z" fill-opacity="0.1" id="path_53"/><path fill="#000000" d="M10.2759,28.5205H13.3174V25.479H10.2759V28.5205Z" fill-opacity="0.1" id="path_54"/><path fill="#000000" d="M7.2384,25.4834H10.2799V22.4419H7.2384V25.4834Z" fill-opacity="0.1" id="path_55"/><path fill="#000000" d="M4.1969,25.4834H7.2384V22.4419H4.1969V25.4834Z" fill-opacity="0.1" id="path_56"/><path fill="#000000" d="M43.7201,22.438H46.7616V19.3965H43.7201V22.438Z" fill-opacity="0.1" id="path_57"/><path fill="#000000" d="M40.6787,22.438H43.7202V19.3965H40.6787V22.438Z" fill-opacity="0.1" id="path_58"/><path fill="#000000" d="M34.5997,22.438H37.6412V19.3965H34.5997V22.438Z" fill-opacity="0.1" id="path_59"/><path fill="#000000" d="M25.4793,22.438H28.5207V19.3965H25.4793V22.438Z" fill-opacity="0.1" id="path_60"/><path fill="#000000" d="M25.4793,19.4004H28.5207V16.3589H25.4793V19.4004Z" fill-opacity="0.1" id="path_61"/><path fill="#000000" d="M19.4003,22.438H22.4418V19.3965H19.4003V22.438Z" fill-opacity="0.1" id="path_62"/><path fill="#000000" d="M16.3588,22.438H19.4003V19.3965H16.3588V22.438Z" fill-opacity="0.1" id="path_63"/><path fill="#000000" d="M10.2759,22.438H13.3174V19.3965H10.2759V22.438Z" fill-opacity="0.1" id="path_64"/><path fill="#000000" d="M4.1969,22.438H7.2384V19.3965H4.1969V22.438Z" fill-opacity="0.1" id="path_65"/><path fill="#000000" d="M31.5582,19.4004H34.5997V16.3589H31.5582V19.4004Z" fill-opacity="0.1" id="path_66"/><path fill="#000000" d="M16.3588,19.4004H19.4003V16.3589H16.3588V19.4004Z" fill-opacity="0.1" id="path_67"/><path fill="#000000" d="M13.3174,19.4004H16.3588V16.3589H13.3174V19.4004Z" fill-opacity="0.1" id="path_68"/><path fill="#000000" d="M7.2384,19.4004H10.2799V16.3589H7.2384V19.4004Z" fill-opacity="0.1" id="path_69"/><path fill="#000000" d="M4.1969,19.4004H7.2384V16.3589H4.1969V19.4004Z" fill-opacity="0.1" id="path_70"/><path fill="#000000" d="M28.5207,16.3628H31.5622V13.3213H28.5207V16.3628Z" fill-opacity="0.1" id="path_71"/><path fill="#000000" d="M31.5582,16.3628H34.5997V13.3213H31.5582V16.3628Z" fill-opacity="0.1" id="path_72"/><path fill="#000000" d="M25.4793,16.3628H28.5207V13.3213H25.4793V16.3628Z" fill-opacity="0.1" id="path_73"/><path fill="#000000" d="M19.4003,16.3628H22.4418V13.3213H19.4003V16.3628Z" fill-opacity="0.1" id="path_74"/><path fill="#000000" d="M16.3588,16.3628H19.4003V13.3213H16.3588V16.3628Z" fill-opacity="0.1" id="path_75"/><path fill="#000000" d="M10.2759,16.3628H13.3174V13.3213H10.2759V16.3628Z" fill-opacity="0.1" id="path_76"/><path fill="#000000" d="M25.4793,13.3174H28.5207V10.2759H25.4793V13.3174Z" fill-opacity="0.1" id="path_77"/><path fill="#000000" d="M22.4378,13.3174H25.4793V10.2759H22.4378V13.3174Z" fill-opacity="0.1" id="path_78"/><path fill="#000000" d="M16.3588,13.3174H19.4003V10.2759H16.3588V13.3174Z" fill-opacity="0.1" id="path_79"/><path fill="#000000" d="M13.3174,13.3174H16.3588V10.2759H13.3174V13.3174Z" fill-opacity="0.1" id="path_80"/><path fill="#000000" d="M10.2759,13.3174H13.3174V10.2759H10.2759V13.3174Z" fill-opacity="0.1" id="path_81"/><path fill="#000000" d="M4.1969,13.3174H7.2384V10.2759H4.1969V13.3174Z" fill-opacity="0.1" id="path_82"/><path fill="#000000" d="M31.5582,10.2798H34.5997V7.2383H31.5582V10.2798Z" fill-opacity="0.1" id="path_83"/><path fill="#000000" d="M28.5207,10.2798H31.5622V7.2383H28.5207V10.2798Z" fill-opacity="0.1" id="path_84"/><path fill="#000000" d="M22.4378,10.2798H25.4793V7.2383H22.4378V10.2798Z" fill-opacity="0.1" id="path_85"/><path fill="#000000" d="M19.4003,10.2798H22.4418V7.2383H19.4003V10.2798Z" fill-opacity="0.1" id="path_86"/><path fill="#000000" d="M13.3174,10.2798H16.3588V7.2383H13.3174V10.2798Z" fill-opacity="0.1" id="path_87"/><path fill="#000000" d="M7.2384,10.2798H10.2799V7.2383H7.2384V10.2798Z" fill-opacity="0.1" id="path_88"/><path fill="#000000" d="M45.2449,8.7593H42.2034V11.8007H45.2449V8.7593Z" fill-opacity="0.1" id="path_89"/><path fill="#000000" d="M40.6826,16.3507H49.815V4.1968H37.6412V16.3507H40.6826ZM40.6826,10.2718V7.2382H46.7616V13.3172H40.6826V10.2718Z" fill-opacity="0.1" id="path_90"/><path fill="#000000" d="M31.5582,7.2383H34.5997V4.1968H31.5582V7.2383Z" fill-opacity="0.1" id="path_91"/><path fill="#000000" d="M25.4793,7.2383H28.5207V4.1968H25.4793V7.2383Z" fill-opacity="0.1" id="path_92"/><path fill="#000000" d="M19.4003,7.2383H22.4418V4.1968H19.4003V7.2383Z" fill-opacity="0.1" id="path_93"/><path fill="#000000" d="M10.2759,7.2383H13.3174V4.1968H10.2759V7.2383Z" fill-opacity="0.1" id="path_94"/><path fill="#000000" d="M7.2384,7.2383H10.2799V4.1968H7.2384V7.2383Z" fill-opacity="0.1" id="path_95"/><path fill="#000000" d="M4.1969,7.2383H7.2384V4.1968H4.1969V7.2383Z" fill-opacity="0.1" id="path_96"/></svg>