<svg id="vector" xmlns="http://www.w3.org/2000/svg" width="32" height="32" viewBox="0 0 32 32"><path fill="#7b35bb" d="M3.6407,3.6407H8.5626V2H2V8.5626H3.6407V3.6407Z" id="path_0"/><path fill="#7b35bb" d="M23.4375,2V3.6407H28.3595V8.5626H30.0001V2H23.4375Z" id="path_1"/><path fill="#7b35bb" d="M28.3595,28.3605H23.4375V30.0011H30.0001V23.4385H28.3595V28.3605Z" id="path_2"/><path fill="#7b35bb" d="M3.6404,23.4384H1.9998V30.001H8.5624V28.3603H3.6404V23.4384Z" id="path_3"/><path fill="#7b35bb" d="M15.1252,15.1252H5.5V5.5H15.1252V15.1252ZM7.25,13.3752H13.3752V7.25H7.25V13.3752Z" id="path_4"/><path fill="#7b35bb" d="M26.5004,15.1252H16.8752V5.5H26.5004V15.1252ZM18.6252,13.3752H24.7504V7.25H18.6252V13.3752Z" id="path_5"/><path fill="#7b35bb" d="M15.1252,26.5001H5.5V16.8749H15.1252V26.5001ZM7.25,24.7501H13.3752V18.6249H7.25V24.7501Z" id="path_6"/><path fill="#7b35bb" d="M26.5002,23.0001H24.7502V18.625H23.0001V21.2501H17.75V16.875H19.5V19.5001H21.2501V16.875H26.5002V23.0001Z" id="path_7"/><path fill="#7b35bb" d="M26.5002,26.5011H17.75V23.001H19.5V24.751H26.5002V26.5011Z" id="path_8"/><path fill="#7b35bb" d="M9,9H11.6251V11.6251H9V9Z" id="path_9"/><path fill="#7b35bb" d="M20.375,9H23.0001V11.6251H20.375V9Z" id="path_10"/><path fill="#7b35bb" d="M9,20.376H11.6251V23.001H9V20.376Z" id="path_11"/></svg>